PathFileType        4      (X/Y/Z)      C:\Users\cpontonn\Documents\TRAVAIL - COURS\DIGISPORT\Partage Nico\Partage Nico DIGISPORT\TP OPENSIM - eleves - work\DATA\transformed_Statique.trc         
DataRate	CameraRate	NumFrames	NumMarkers	Units	OrigDataRate	OrigDataStartFrame	OrigNumFrames
100.0	100.0	4	38	mm	100.0	1	610
Frame#	Time	LFHD			LBHD			RFHD			RBHD			C7			T10			CLAV			STRN			LSHO			LRAD			LHUM			LWRB			LWRA			LCAR			RSHO			RRAD			RHUM			RWRB			RWRA			RCAR			LFWT			LBWT			RFWT			RBWT			LKNE			LKNI			LANE			LHEE			LANI			LTAR			LTOE			RKNE			RKNI			RANE			RHEE			RANI			RTAR			RTOE			
		X1	Y1	Z1	X2	Y2	Z2	X3	Y3	Z3	X4	Y4	Z4	X5	Y5	Z5	X6	Y6	Z6	X7	Y7	Z7	X8	Y8	Z8	X9	Y9	Z9	X10	Y10	Z10	X11	Y11	Z11	X12	Y12	Z12	X13	Y13	Z13	X14	Y14	Z14	X15	Y15	Z15	X16	Y16	Z16	X17	Y17	Z17	X18	Y18	Z18	X19	Y19	Z19	X20	Y20	Z20	X21	Y21	Z21	X22	Y22	Z22	X23	Y23	Z23	X24	Y24	Z24	X25	Y25	Z25	X26	Y26	Z26	X27	Y27	Z27	X28	Y28	Z28	X29	Y29	Z29	X30	Y30	Z30	X31	Y31	Z31	X32	Y32	Z32	X33	Y33	Z33	X34	Y34	Z34	X35	Y35	Z35	X36	Y36	Z36	X37	Y37	Z37	X38	Y38	Z38	
1	0.0	91.39657999999994	1794.92383	410.3241000000001	99.49971999999997	1742.73987	272.2312000000001	-44.71988000000005	1796.81519	406.3924000000001	-26.301520000000032	1734.94055	256.7416100000001	17.533569999999973	1614.50366	226.07716000000008	17.018559999999983	1386.00684	157.42352000000008	17.583089999999956	1541.89404	356.2586100000001	16.34141999999995	1366.66785	402.7391400000001	219.31556999999998	1579.89734	280.79297000000014	278.6790199999999	1203.81567	265.2528700000001	218.89037999999996	1210.11035	234.97656000000012	292.23339999999996	965.87219	358.46719000000013	218.61577999999994	967.20178	384.10129000000006	272.2395599999999	894.60614	416.01361000000014	-173.66718000000003	1575.47229	281.4507400000001	-240.25883000000002	1199.86731	262.76614	-187.42255000000003	1202.65918	230.35838000000007	-266.52200000000005	959.57184	360.2153	-203.19257000000005	960.80511	395.5568200000001	-261.50870000000003	889.7193	410.28702	116.71206999999994	1069.51538	428.02911000000006	46.24034999999997	1110.37366	236.00163000000006	-74.00875000000006	1069.77759	436.53595000000007	-34.56691000000003	1109.90186	239.75523000000007	188.77016999999998	564.17102	249.58319000000006	80.34836999999997	521.70831	265.21454000000006	195.43804999999998	107.68545999999999	233.23398000000003	137.11147999999997	27.40748999999999	158.41884000000002	108.58977999999998	112.45135999999998	250.6167	229.89496999999994	44.201279999999976	391.56226	149.08648999999994	46.49307999999997	450.74307	-169.37228000000002	558.89374	284.84619000000004	-79.62420000000003	509.487	279.35934000000003	-183.98230000000004	98.79378999999999	235.86350999999996	-121.22716000000001	30.38068999999999	160.10642999999996	-93.53583000000003	119.09643999999999	252.67686	-220.71458000000007	41.25232999999998	391.6362	-137.13533000000007	43.18634999999997	452.50995	
2	0.01	91.39804999999994	1794.85474	410.2803600000001	99.50184999999998	1742.82617	272.1120300000001	-44.72929000000005	1796.74866	406.3324300000001	-26.310580000000034	1735.0448	256.61691000000013	17.54759999999997	1614.50769	225.9895500000001	17.01430999999998	1386.00464	157.3195000000001	17.614479999999958	1541.83533	356.1700400000001	16.36789999999995	1366.6095	402.65747000000005	219.33433999999997	1579.84216	280.6593000000001	278.6318099999999	1203.75867	265.1235000000001	218.78888999999998	1210.05762	234.8758700000001	292.21300999999994	965.80798	358.24164000000013	218.60981999999996	967.13293	383.94952000000006	272.26967999999994	894.51703	415.80450000000013	-173.63545000000002	1575.45435	281.3816200000001	-240.23178000000001	1199.86292	262.6449	-187.39743000000004	1202.65295	230.24570000000006	-266.47998000000007	959.56561	360.11688	-203.15140000000005	960.7981	395.4496500000001	-261.44540000000006	889.69916	410.17746	116.72288999999995	1069.51013	427.93201000000005	46.250789999999974	1110.3562	235.92307000000005	-73.99758000000006	1069.78552	436.4475100000001	-34.57134000000003	1109.90808	239.64363000000006	188.78898999999998	564.16614	249.51315000000005	80.35389999999997	521.69373	265.15448000000004	195.43601999999998	107.68022999999998	233.23128000000003	137.10984999999997	27.40209999999999	158.40544000000003	108.60003999999998	112.44909999999999	250.61612	229.88926999999995	44.214869999999976	391.56235	149.09398999999993	46.50368999999997	450.74707	-169.36507000000003	558.91095	284.79150000000004	-79.64218000000002	509.50253	279.31342000000006	-183.96445000000003	98.78151999999999	235.88650999999996	-121.24047000000002	30.37529999999999	160.08532999999997	-93.54875000000003	119.10199999999999	252.67073	-220.69940000000005	41.24968999999998	391.6293	-137.13460000000006	43.196619999999974	452.51688	
3	0.02	91.37661999999995	1794.76733	410.2276000000001	99.49324999999997	1742.88745	272.01447000000013	-44.74903000000005	1796.73962	406.2684600000001	-26.32378000000003	1735.14026	256.5003700000001	17.558169999999972	1614.5116	225.89084000000008	17.03173999999998	1385.99854	157.22716000000008	17.657259999999958	1541.79797	356.06686000000013	16.37526999999995	1366.57983	402.58435000000003	219.34263999999996	1579.8064	280.5495300000001	278.56759999999997	1203.698	265.0098000000001	218.69388999999998	1209.96729	234.7762900000001	292.20449999999994	965.73492	358.0641200000001	218.58034999999995	967.05609	383.79492000000005	272.2547599999999	894.43134	415.5983900000001	-173.61234000000002	1575.44458	281.30792000000014	-240.22469000000004	1199.84888	262.52002	-187.41080000000002	1202.64404	230.11470000000006	-266.43625000000003	959.55505	360.02219	-203.06007000000005	960.78845	395.29285000000004	-261.39038000000005	889.69305	410.08127	116.73684999999995	1069.51404	427.8260200000001	46.273779999999974	1110.37952	235.83246000000005	-73.99253000000006	1069.78577	436.35059000000007	-34.56967000000003	1109.90295	239.55318000000005	188.81307999999999	564.17664	249.47307000000006	80.38299999999997	521.70593	265.08203000000003	195.44286999999997	107.66128999999998	233.19901000000002	137.13785999999996	27.40092999999999	158.41141000000002	108.59518999999997	112.45444999999998	250.6073	229.88997999999995	44.21663999999998	391.56726	149.10187999999994	46.51521999999997	450.73242	-169.36339000000004	558.90289	284.7372700000001	-79.62135000000004	509.48257	279.24399000000005	-183.96255000000002	98.79033999999999	235.85125999999997	-121.22204000000002	30.376359999999988	160.09128999999996	-93.54164000000003	119.10183999999998	252.67039	-220.70068000000006	41.25750999999998	391.62598	-137.12860000000006	43.21327999999997	452.5015	
4	0.03	91.66376999999994	1794.56641	409.9966700000001	99.29381999999997	1743.01416	271.41275000000013	-44.79971000000005	1796.7821	406.2326700000001	-26.35737000000003	1735.297	256.2654700000001	17.540989999999972	1614.49939	225.7798200000001	17.01569999999998	1385.98499	157.12579000000008	17.67573999999996	1541.73828	355.9642300000001	16.38882999999995	1366.5354	402.48184000000003	219.34147999999996	1579.7793	280.39771000000013	278.45235999999994	1204.21033	265.03534000000013	218.87401999999997	1209.77344	234.2454200000001	292.3877299999999	965.74731	358.2800000000001	218.65238999999994	967.05261	383.89569000000006	272.22664999999995	894.35492	415.40347000000014	-173.59270000000004	1575.41858	281.2312900000001	-240.15999000000002	1200.12036	262.53812	-187.41217000000003	1202.61987	230.00917000000007	-266.36163000000005	959.4256	359.81247	-204.26492000000005	962.16498	398.2913500000001	-261.31268000000006	889.68207	409.98499	116.78966999999994	1069.46924	427.70294000000007	46.277159999999974	1110.36755	235.73080000000004	-73.98236000000006	1069.75342	436.30057000000005	-34.70638000000003	1109.73438	238.98512000000005	188.85084999999998	564.02264	248.98151000000004	80.39090999999998	521.70221	265.05521000000005	195.46074999999996	107.67192999999999	233.22009000000003	137.10662999999997	27.39269999999999	158.39516000000003	108.59255999999998	112.43995999999999	250.60068	229.90229999999994	44.23047999999998	391.53809	149.09461999999994	46.515789999999974	450.74387	-169.32588000000004	559.06915	284.8053300000001	-79.61646000000003	509.48517	279.2140800000001	-184.70749000000004	98.81455999999999	236.07169999999996	-121.23004000000002	30.35011999999999	160.09644999999998	-93.45646000000004	118.94078999999999	252.01566	-220.69678000000005	41.26352999999998	391.62473	-137.09605000000005	43.18472999999997	452.54117	
